<svg xmlns="http://www.w3.org/2000/svg" viewBox="0 0 880 152" width="880" height="152" role="img" aria-label="michael tarekegn - an attention arc diagram">
<!-- generated by tools/build_banner.py - edit that, not this -->
<style>
  .t { font-family: ui-monospace, SFMono-Regular, 'SF Mono', Menlo, Consolas, 'Liberation Mono', monospace; }
  .name { font-size: 27px; fill: #1a1a1a; letter-spacing: .5px; }
  .cap  { font-size: 9.5px; fill: #8a8a8a; letter-spacing: 1.1px; }
  .rule { stroke: #d8d8d8; stroke-width: 1; fill: none; }
  .arc  { fill: none; stroke: #1a1a1a; stroke-linecap: round;
          stroke-dasharray: 100; stroke-dashoffset: 100; }
  .dot  { fill: #1a1a1a; fill-opacity: .34; }

  .rule { stroke-dasharray: 100; stroke-dashoffset: 100;
          animation: draw 0.8s ease-out forwards; }
  .name { opacity: 0; animation: rise .6s ease-out .15s forwards; }
  .arc  { opacity: 0; animation: sweep 0.9s ease-out forwards; }
  .dot circle { opacity: 0; animation: pop .45s ease-out forwards; }
  .cap  { opacity: 0; animation: fade .6s ease-out forwards; }

  @keyframes draw { to { stroke-dashoffset: 0; } }
  @keyframes rise {
    from { opacity: 0; transform: translateY(4px); }
    to   { opacity: 1; transform: translateY(0); }
  }
  @keyframes sweep {
    0%   { stroke-dashoffset: 100; opacity: 0; }
    15%  { opacity: var(--w); }
    100% { stroke-dashoffset: 0; opacity: var(--w); }
  }
  @keyframes pop {
    from { opacity: 0; transform: scale(.4); }
    to   { opacity: 1; transform: scale(1); }
  }
  @keyframes fade { to { opacity: 1; } }
</style>
<text class="t name" x="48" y="44">michael tarekegn</text>
<path class="rule" pathLength="100" d="M48,128 L832,128"/>
<g>
<path class="arc" pathLength="100" d="M48.0,128 A288.8,63.0 0 0,1 625.7,128" stroke-width="0.98" style="--w:0.41;animation-delay:0.35s"/>
<path class="arc" pathLength="100" d="M171.8,128 A82.5,34.4 0 0,1 336.8,128" stroke-width="1.29" style="--w:0.65;animation-delay:0.68s"/>
<path class="arc" pathLength="100" d="M254.3,128 A41.3,25.8 0 0,1 336.8,128" stroke-width="1.43" style="--w:0.75;animation-delay:0.90s"/>
<path class="arc" pathLength="100" d="M378.1,128 A123.8,41.3 0 0,1 625.7,128" stroke-width="1.16" style="--w:0.55;animation-delay:1.23s"/>
<path class="arc" pathLength="100" d="M460.6,128 A41.3,25.8 0 0,1 543.2,128" stroke-width="1.35" style="--w:0.69;animation-delay:1.45s"/>
<path class="arc" pathLength="100" d="M501.9,128 A165.1,47.4 0 0,1 832.0,128" stroke-width="1.12" style="--w:0.52;animation-delay:1.56s"/>
<path class="arc" pathLength="100" d="M625.7,128 A41.3,25.8 0 0,1 708.2,128" stroke-width="1.40" style="--w:0.73;animation-delay:1.89s"/>
<path class="arc" pathLength="100" d="M666.9,128 A82.5,34.4 0 0,1 832.0,128" stroke-width="1.25" style="--w:0.61;animation-delay:2.00s"/>
<path class="arc" pathLength="100" d="M749.5,128 A20.6,20.3 0 0,1 790.7,128" stroke-width="1.47" style="--w:0.79;animation-delay:2.22s"/>
<path class="arc" pathLength="100" d="M336.8,128 A144.4,44.5 0 0,0 48.0,128" stroke-width="0.97" style="--w:0.41;animation-delay:1.12s"/>
<path class="arc" pathLength="100" d="M666.9,128 A309.5,65.3 0 0,0 48.0,128" stroke-width="1.02" style="--w:0.44;animation-delay:2.00s"/>
</g>
<g class="dot" transform="translate(48.0,128)"><circle r="1.9" style="animation-delay:0.35s"/></g>
<g class="dot" transform="translate(89.3,128)"><circle r="1.9" style="animation-delay:0.46s"/></g>
<g class="dot" transform="translate(130.5,128)"><circle r="1.9" style="animation-delay:0.57s"/></g>
<g class="dot" transform="translate(171.8,128)"><circle r="1.9" style="animation-delay:0.68s"/></g>
<g class="dot" transform="translate(213.1,128)"><circle r="1.9" style="animation-delay:0.79s"/></g>
<g class="dot" transform="translate(254.3,128)"><circle r="1.9" style="animation-delay:0.90s"/></g>
<g class="dot" transform="translate(295.6,128)"><circle r="1.9" style="animation-delay:1.01s"/></g>
<g class="dot" transform="translate(336.8,128)"><circle r="1.9" style="animation-delay:1.12s"/></g>
<g class="dot" transform="translate(378.1,128)"><circle r="1.9" style="animation-delay:1.23s"/></g>
<g class="dot" transform="translate(419.4,128)"><circle r="1.9" style="animation-delay:1.34s"/></g>
<g class="dot" transform="translate(460.6,128)"><circle r="1.9" style="animation-delay:1.45s"/></g>
<g class="dot" transform="translate(501.9,128)"><circle r="1.9" style="animation-delay:1.56s"/></g>
<g class="dot" transform="translate(543.2,128)"><circle r="1.9" style="animation-delay:1.67s"/></g>
<g class="dot" transform="translate(584.4,128)"><circle r="1.9" style="animation-delay:1.78s"/></g>
<g class="dot" transform="translate(625.7,128)"><circle r="1.9" style="animation-delay:1.89s"/></g>
<g class="dot" transform="translate(666.9,128)"><circle r="1.9" style="animation-delay:2.00s"/></g>
<g class="dot" transform="translate(708.2,128)"><circle r="1.9" style="animation-delay:2.11s"/></g>
<g class="dot" transform="translate(749.5,128)"><circle r="1.9" style="animation-delay:2.22s"/></g>
<g class="dot" transform="translate(790.7,128)"><circle r="1.9" style="animation-delay:2.33s"/></g>
<g class="dot" transform="translate(832.0,128)"><circle r="1.9" style="animation-delay:2.44s"/></g>
<text class="t cap" x="832" y="146" text-anchor="end" style="animation-delay:2.44s">one head &#183; 20 tokens</text>
</svg>
